<?xml version="1.0" encoding="UTF-8"?>
<!-- Created with Inkscape (http://www.inkscape.org/) -->
<svg width="43px" height="32px" version="1.1" viewBox="0 0 33.819 12.529" xmlns="http://www.w3.org/2000/svg" xmlns:cc="http://creativecommons.org/ns#" xmlns:dc="http://purl.org/dc/elements/1.1/" xmlns:osb="http://www.openswatchbook.org/uri/2009/osb" xmlns:rdf="http://www.w3.org/1999/02/22-rdf-syntax-ns#">
 <metadata>
  <rdf:RDF>
   <cc:Work rdf:about="">
    <dc:format>image/svg+xml</dc:format>
    <dc:type rdf:resource="http://purl.org/dc/dcmitype/StillImage"/>
    <dc:title/>
   </cc:Work>
  </rdf:RDF>
 </metadata>
 <g transform="translate(-56.523 -159.12)">
  <path d="m92.612 79.798 4.9438-3.3757 6.4728-4.016 4.016-2.5041 7.1816 6.1421 1.8899-0.7087 8.3815 6.73-5.4016-0.76741s-7.8242-3.2782-8.0605-3.2782c-0.11812 0-1.844 0.61386-3.7242 1.3948-0.94006 0.39045-1.1712 0.88113-1.9022 0.9067s-1.7116-0.64783-1.7116-0.64783l1.864-3.3073-6.6912 2.4837-2.1258 0.60762z" fill="none" stroke="#000" stroke-width=".26458px"/>
  <path d="m107.38 72.643c0.85045-0.85045 2.2679-0.37798 2.2679-0.37798l1.6064 0.37798-3.2128-2.7403-3.0238 2.0789-6.4256 3.6853-5.9832 4.1317 5.5108-2.2418 4.4412-1.9844 0.66146-1.2284z" fill="none" stroke="#000" stroke-width=".26458px"/>
  <path d="m93.591 79.155c0.18001-0.18499 4.3656-2.894 5.7766-3.7682 0.77958-0.48295 2.2369-1.6102 3.4853-2.1301 1.1816-0.87068 2.8766-1.686 3.6814-2.2368 1.3124-0.8983 1.3389-1.2241 1.5104-1.117 0.26863 0.16776 3.2144 2.7702 2.864 2.5883 0 0-0.94552-0.14504-1.2576-0.22591-0.87508-0.22676-1.7143 0.08626-2.2679 0.37798 0 0-1.0024 0.38667-2.1679 0.80687l-1.9898 0.89402-0.48657 0.74918-0.17489 0.47924-2.2682 1.0812c-1.1318 0.53951-2.8596 1.0314-3.8547 1.4879-2.2116 1.0146-2.966 1.1325-2.8501 1.0134z" opacity=".989" stroke-width=".012143"/>
  <path d="m115.23 76.045-2.6072 2.155 1.3865 0.56795 1.8041-1.1526 0.3842-0.58465 1.2361 0.03341c4.5923 2.9998 1.0229-0.49509-0.31377-1.7278z" fill="none" stroke="#000" stroke-width=".26458px"/>
  <path d="m106.02 80.294c-0.14292-0.04632-0.65056-0.26885-0.83935-0.36458l-0.2262-0.21458-0.25327-0.04094c0.0384-0.07426 0.70423-1.048 1.1989-1.9252 0.4947-0.87718 0.65732-1.651 0.65732-1.6763 0-0.02529 0.41636 0.11777 0.38388 0.13022 0 0-1.7178 0.62471-3.6223 1.3317-2.4597 0.91307-3.7491 1.3016-4.4944 1.515l-1.0764 0.40857-1.9116 0.05123c-1.0209 0.06816-2.3864 0.12912-2.4643 0.12105-0.10566-0.01095 0.8434-0.37654 2.3168-0.97217 1.0857-0.43892 3.096-1.257 4.4745-1.8684l2.404-1.2175 0.33482-0.58099 0.42155-0.55099 2.0847-0.8879c1.2206-0.51988 2.1101-0.86873 2.1977-0.94329 0.25984-0.22104 0.70981-0.39818 1.1893-0.39594 0.55007 0.0026 2.4159 0.46622 2.6212 0.63929 1.496 1.261 3.9132 3.1864 3.6114 3.1952 0.30183-0.0089-0.54239 0.56336-1.2129 1.0607l-1.1929 1.0914c0.0476 0.17122-0.6306-0.1739-0.70855-0.174-0.16564-2.38e-4 -0.56373 0.1058-1.9287 0.62886-1.5442 0.59176-1.9539 0.83464-2.518 1.1889-0.24235 0.19368-0.75161 0.33936-0.83903 0.36444-0.23561 0.06757-0.43365 0.27564-0.60842 0.08622z" opacity=".989" stroke-width=".0060714"/>
  <path d="m51.318 78.497 4.9438-3.3757 6.4728-4.016 4.016-2.5041 7.1815 6.1421 1.8899-0.7087 8.3815 6.73-5.4016-0.76741s-7.8242-3.2782-8.0605-3.2782c-0.11812 0-1.844 0.61386-3.7242 1.3948-0.94006 0.39045-1.1712 0.88113-1.9022 0.9067-0.73107 0.02557-1.7116-0.64783-1.7116-0.64783l1.864-3.3073-6.6912 2.4837-2.1258 0.60762z" fill="none" stroke="#000" stroke-width=".26458px"/>
  <path d="m66.089 71.341c0.85045-0.85045 2.2679-0.37798 2.2679-0.37798l1.6064 0.37798-3.2128-2.7403-3.0238 2.0789-6.4256 3.6853-5.9832 4.1317 5.5108-2.2418 4.4412-1.9844 0.66146-1.2284z" fill="none" stroke="#000" stroke-width=".26458px"/>
  <path d="m52.297 77.853c0.18002-0.18499 4.3656-2.894 5.7766-3.7682 0.77958-0.48295 2.2369-1.6102 3.4853-2.1301 1.1816-0.87068 2.8766-1.686 3.6814-2.2368 1.3124-0.8983 1.3389-1.2241 1.5104-1.117 0.26863 0.16776 3.2144 2.7702 2.864 2.5883 0 0-0.94552-0.14504-1.2576-0.22591-0.87509-0.22676-1.7143 0.08626-2.2679 0.37798 0 0-1.0024 0.38667-2.1679 0.80687l-1.9898 0.89402-0.48656 0.74918-0.1749 0.47924-2.2682 1.0812c-1.1318 0.53951-2.8596 1.0314-3.8547 1.4879-2.2116 1.0146-2.966 1.1325-2.8501 1.0134z" opacity=".989" stroke-width=".012143"/>
  <path d="m73.932 74.743-2.6072 2.155 1.3029 0.33409 1.6036-1.6036 0.66817 0.10022 1.2361 0.03341 1.2027-0.33409-1.5165-1.3938z" fill="none" stroke="#000" stroke-width=".26458px"/>
  <g>
   <path d="m71.614 77.179c-0.26128-0.06825-0.48557-0.13427-0.49843-0.1467-0.0129-0.01243 0.61552-0.53275 1.3964-1.1563l1.4198-1.1336 1.0683-0.38748c0.58758-0.21312 1.08-0.38749 1.0942-0.38749 0.0472 0 1.4683 1.2778 1.4656 1.3179-1e-3 0.02162-0.24211 0.10414-0.53488 0.18334-0.52889 0.14307-0.25823 0.30932-0.88958 0.29287-0.34949-0.0091-0.93867 0.0031-1.2361-0.03341l-0.66817-0.10022-0.87205 0.83463c-0.73157 0.76899-1.1759 0.84698-1.2093 0.84471-0.0334-0.0022-0.27449-0.05998-0.53577-0.12823z" opacity=".989" stroke-width=".0051411"/>
   <path d="m64.569 78.768c-0.14292-0.04632-0.41433-0.16255-0.60312-0.25827l-0.34326-0.17405 0.06982-0.13502c0.03841-0.07426 0.47458-0.85272 0.96928-1.7299 0.4947-0.87718 0.89946-1.6156 0.89946-1.6408 0-0.02529-0.0266-0.03578-0.0591-0.02334-0.0325 0.01246-1.6174 0.60109-3.5219 1.3081-2.4597 0.91307-3.7668 1.3725-4.5121 1.5859l-1.0492 0.30044-1.8561 0.12392c-1.0209 0.06816-1.9198 0.11731-1.9977 0.10924-0.10566-0.01095 0.35912-0.21708 1.8325-0.81271 1.0857-0.43891 3.1019-1.2983 4.4804-1.9097l2.5063-1.1117 0.66593-1.2319 2.0788-0.85247c1.2275-0.50338 2.1396-0.90417 2.2272-0.97873 0.25985-0.22104 0.63894-0.33322 1.1185-0.33097 0.55008 0.0026 2.3155 0.41307 2.5208 0.58614 1.496 1.261 3.6454 3.1294 3.635 3.1598-7e-3 0.02209-0.54006 0.47548-1.1834 1.0075l-1.1696 0.96739-0.20053-0.07215c-0.11029-0.03968-0.26431-0.07225-0.34227-0.07236-0.16564-2.38e-4 -0.75271 0.20029-2.1176 0.72336-1.5442 0.59176-1.9539 0.77558-2.518 1.1298-0.2896 0.18186-0.59806 0.35118-0.68548 0.37625-0.23561 0.06757-0.55177 0.05121-0.84465-0.04372z" fill="#fff" opacity=".989" stroke-width=".0060714"/>
   <path d="m122.44 81.577-2.3432-0.27881-1.6039-0.73176c-0.88199-0.36864-2.286-0.99053-3.0624-1.3098-0.70909-0.24386-2.7666-1.0583-2.5616-1.1251 0 0 0.96968-0.15082 1.3881-0.56894l1.2694-0.63285c0.46098-0.16105 0.85909-0.10123 1.2803-0.08867l0.62395 0.2223 1.3018 0.3615 0.19621-0.5125-0.33073-0.34844 3.2668 2.6959c1.6568 1.3672 3.2797 2.6255 3.0366 2.5244-0.0535-0.02223 0.30014 0.10396 0.24316 0.10102-0.0361-0.0019-1.1373-0.09747-2.4328-0.28464z" opacity=".989" stroke-width=".0042932"/>
   <path d="m93.942 79.071c0.01471-0.0159 0.8528-0.59316 1.8624-1.2828 2.2845-1.5605 4.4866-2.9328 7.2481-4.5168 1.9242-1.1037 2.091-1.2072 3.4743-2.1555 0.79917-0.54787 1.4763-0.99528 1.5046-0.99424 0.0467 0.0016 1.4224 1.3045 2.1108 1.9103-0.0834 0.0232-0.0507 0.18982-0.12986 0.22484-0.15299 0.99174-4.7673 2.2256-7.1134 2.7339l-2.5883 1.4364c-1.2239 0.54738-3.0389 1.324-4.2071 1.8003-2.0389 0.8312-2.2131 0.89918-2.1615 0.8435z" fill="#fff" opacity=".989" stroke-width=".0042932"/>
   <rect x="16.277" y="16.741" width="115.99" height="35.173" opacity=".989" stroke-width=".034"/>
   <rect x="17.586" y="92.512" width="115.99" height="35.173" opacity=".989" stroke-width=".034"/>
  </g>
  <g id="logo">
   <path d="m56.998 169.18 4.9438-3.3757 6.4728-4.016 4.016-2.5041 7.1816 6.1421 1.8899-0.70871 8.3815 6.73-5.4016-0.76742s-7.8242-3.2782-8.0605-3.2782c-0.11812 0-1.844 0.61386-3.7242 1.3948-0.94006 0.39045-1.1712 0.88113-1.9022 0.9067-0.73107 0.0256-1.7116-0.64783-1.7116-0.64783l1.864-3.3073-6.6912 2.4837-2.1258 0.60762z" fill="none" stroke="#000" stroke-width=".26458px"/>
   <path d="m71.769 162.03c0.85045-0.85045 2.2679-0.37797 2.2679-0.37797l1.6064 0.37797-3.2128-2.7403-3.0238 2.0789-6.4256 3.6853-5.9832 4.1317 5.5108-2.2418 4.4412-1.9844 0.66146-1.2284z" fill="none" stroke="#000" stroke-width=".26458px"/>
   <path d="m57.977 168.54c0.18002-0.18499 4.3656-2.894 5.7766-3.7682 0.77957-0.48295 2.2369-1.6102 3.4853-2.1301 1.1816-0.87068 2.8766-1.686 3.6814-2.2368 1.3124-0.89831 1.3389-1.2241 1.5104-1.117 0.26863 0.16777 3.2144 2.7702 2.864 2.5883 0 0-0.94552-0.14503-1.2576-0.2259-0.87508-0.22676-1.7143 0.0863-2.2679 0.37797 0 0-1.0024 0.38667-2.1679 0.80687l-1.9898 0.89402-0.48657 0.74918-0.17489 0.47925-2.2682 1.0812c-1.1318 0.5395-2.8596 1.0314-3.8547 1.4879-2.2116 1.0146-2.966 1.1325-2.8501 1.0134z" opacity=".989" stroke-width=".012143"/>
   <path d="m79.612 165.43-2.6072 2.155 1.3865 0.56795 1.8041-1.1526 0.3842-0.58465 1.2361 0.0334c4.5923 2.9998 1.0229-0.49509-0.31377-1.7278z" fill="none" stroke="#000" stroke-width=".26458px"/>
   <g>
    <path d="m70.402 169.68c-0.14292-0.0463-0.65056-0.26885-0.83935-0.36458l-0.2262-0.21457-0.25327-0.0409c0.0384-0.0743 0.70423-1.048 1.1989-1.9252 0.4947-0.87719 0.65732-1.651 0.65732-1.6763 0-0.0253 0.41636 0.11778 0.38388 0.13022 0 0-1.7178 0.62471-3.6223 1.3317-2.4597 0.91307-3.7491 1.3016-4.4944 1.515l-1.0764 0.40857-1.9116 0.0512c-1.0209 0.0682-2.3864 0.12913-2.4643 0.12105-0.10566-0.0109 0.8434-0.37654 2.3168-0.97217 1.0858-0.43891 3.096-1.257 4.4745-1.8684l2.404-1.2175 0.33482-0.58099 0.42155-0.55099 2.0847-0.8879c1.2206-0.51988 2.1101-0.86874 2.1977-0.94329 0.25984-0.22104 0.70981-0.39818 1.1893-0.39594 0.55007 3e-3 2.4159 0.46622 2.6212 0.63929 1.496 1.261 3.9132 3.1864 3.6114 3.1952 0.30183-9e-3 -0.54239 0.56336-1.2129 1.0607l-1.1929 1.0914c0.0476 0.17122-0.6306-0.1739-0.70855-0.174-0.16564-2.4e-4 -0.56373 0.1058-1.9287 0.62886-1.5442 0.59176-1.9539 0.83464-2.518 1.1889-0.24235 0.19367-0.75161 0.33936-0.83903 0.36443-0.23561 0.0676-0.43365 0.27564-0.60842 0.0862z" opacity=".989" stroke-width=".0060714"/>
    <path d="m86.825 170.96-2.3432-0.27881-1.6039-0.73175c-0.88199-0.36864-2.286-0.99053-3.0624-1.3098-0.70909-0.24387-2.7666-1.0583-2.5616-1.1251 0 0 0.96968-0.15083 1.3881-0.56894l1.2694-0.63285c0.46098-0.16105 0.85909-0.10123 1.2803-0.0887l0.62395 0.2223 1.3018 0.3615 0.19622-0.5125-0.33074-0.34844 3.2668 2.6959c1.6568 1.3672 3.2797 2.6254 3.0366 2.5244-0.0535-0.0222 0.30015 0.10397 0.24316 0.10102-0.0361-2e-3 -1.1373-0.0975-2.4328-0.28465z" opacity=".989" stroke-width=".0042932"/>
    <path d="m58.327 168.45c0.0147-0.0159 0.8528-0.59316 1.8624-1.2828 2.2845-1.5605 4.4866-2.9328 7.2481-4.5168 1.9242-1.1037 2.091-1.2072 3.4743-2.1555 0.79917-0.54787 1.4763-0.99528 1.5046-0.99424 0.0467 2e-3 1.4224 1.3045 2.1108 1.9103-0.0834 0.0232-0.0507 0.18982-0.12986 0.22484-0.15299 0.99174-4.7673 2.2256-7.1134 2.7339l-2.5883 1.4364c-1.2239 0.54738-3.0389 1.324-4.2071 1.8003-2.0389 0.8312-2.2131 0.89918-2.1615 0.8435z" fill="#fff" opacity=".989" stroke-width=".0042932"/>
   </g>
  </g>
  <g>
   <rect x="52.478" y="147.24" width="41.814" height="36.763" ry="0" fill="none" opacity=".989" stroke-width=".034"/>
   <rect x="115.35" y="168.82" width="41.814" height="36.763" ry="0" fill="none" opacity=".989" stroke-width=".034"/>
   <ellipse cx="136" cy="185.68" rx="19.89" ry="20.731" fill="#fff" opacity=".989" stroke-width=".036336"/>
  </g>
 </g>
 <g transform="translate(-56.523 -159.12)">
  <path d="m119.87 190.76 4.9438-3.3757 6.4728-4.016 4.016-2.5041 7.1816 6.1421 1.8899-0.70871 8.3815 6.73-5.4016-0.76742s-7.8242-3.2782-8.0605-3.2782c-0.11812 0-1.844 0.61386-3.7242 1.3948-0.94006 0.39045-1.1712 0.88113-1.9022 0.9067-0.73107 0.0256-1.7116-0.64783-1.7116-0.64783l1.864-3.3073-6.6912 2.4837-2.1258 0.60762z" fill="none" stroke="#000" stroke-width=".26458px"/>
  <path d="m134.64 183.61c0.85045-0.85045 2.2679-0.37797 2.2679-0.37797l1.6064 0.37797-3.2128-2.7403-3.0238 2.0789-6.4256 3.6853-5.9832 4.1317 5.5108-2.2418 4.4412-1.9844 0.66146-1.2284z" fill="none" stroke="#000" stroke-width=".26458px"/>
  <path d="m120.85 190.12c0.18002-0.18499 4.3656-2.894 5.7766-3.7682 0.77957-0.48295 2.2369-1.6102 3.4853-2.1301 1.1816-0.87068 2.8766-1.686 3.6814-2.2368 1.3124-0.89831 1.3389-1.2241 1.5104-1.117 0.26863 0.16777 3.2144 2.7702 2.864 2.5883 0 0-0.94552-0.14503-1.2576-0.2259-0.87508-0.22676-1.7143 0.0863-2.2679 0.37797 0 0-1.0024 0.38667-2.1679 0.80687l-1.9898 0.89402-0.48657 0.74918-0.17489 0.47925-2.2682 1.0812c-1.1318 0.5395-2.8596 1.0314-3.8547 1.4879-2.2116 1.0146-2.966 1.1325-2.8501 1.0134z" opacity=".989" stroke-width=".012143"/>
  <path d="m142.49 187.01-2.6072 2.155 1.3865 0.56795 1.8041-1.1526 0.3842-0.58465 1.2361 0.0334c4.5923 2.9998 1.0229-0.49509-0.31377-1.7278z" fill="none" stroke="#000" stroke-width=".26458px"/>
  <g>
   <path d="m133.28 191.26c-0.14292-0.0463-0.65056-0.26885-0.83935-0.36458l-0.2262-0.21457-0.25327-0.0409c0.0384-0.0743 0.70423-1.048 1.1989-1.9252 0.4947-0.87719 0.65732-1.651 0.65732-1.6763 0-0.0253 0.41636 0.11778 0.38388 0.13022 0 0-1.7178 0.62471-3.6223 1.3317-2.4597 0.91307-3.7491 1.3016-4.4944 1.515l-1.0764 0.40857-1.9116 0.0512c-1.0209 0.0682-2.3864 0.12913-2.4643 0.12105-0.10566-0.0109 0.8434-0.37654 2.3168-0.97217 1.0858-0.43891 3.096-1.257 4.4745-1.8684l2.404-1.2175 0.33482-0.58099 0.42155-0.55099 2.0847-0.8879c1.2206-0.51988 2.1101-0.86874 2.1977-0.94329 0.25984-0.22104 0.70981-0.39818 1.1893-0.39594 0.55007 3e-3 2.4159 0.46622 2.6212 0.63929 1.496 1.261 3.9132 3.1864 3.6114 3.1952 0.30183-9e-3 -0.54239 0.56336-1.2129 1.0607l-1.1929 1.0914c0.0476 0.17122-0.6306-0.1739-0.70855-0.174-0.16564-2.4e-4 -0.56373 0.1058-1.9287 0.62886-1.5442 0.59176-1.9539 0.83464-2.518 1.1889-0.24235 0.19367-0.75161 0.33936-0.83903 0.36443-0.23561 0.0676-0.43365 0.27564-0.60842 0.0862z" opacity=".989" stroke-width=".0060714"/>
   <path d="m149.7 192.54-2.3432-0.27881-1.6039-0.73175c-0.88199-0.36864-2.286-0.99053-3.0624-1.3098-0.70909-0.24387-2.7666-1.0583-2.5616-1.1251 0 0 0.96968-0.15083 1.3881-0.56894l1.2694-0.63285c0.46098-0.16105 0.85909-0.10123 1.2803-0.0887l0.62395 0.2223 1.3018 0.3615 0.19622-0.5125-0.33074-0.34844 3.2668 2.6959c1.6568 1.3672 3.2797 2.6254 3.0366 2.5244-0.0535-0.0222 0.30015 0.10397 0.24316 0.10102-0.0361-2e-3 -1.1373-0.0975-2.4328-0.28465z" opacity=".989" stroke-width=".0042932"/>
   <path d="m121.2 190.04c0.0147-0.0159 0.8528-0.59316 1.8624-1.2828 2.2845-1.5605 4.4866-2.9328 7.2481-4.5168 1.9242-1.1037 2.091-1.2072 3.4743-2.1555 0.79917-0.54787 1.4763-0.99528 1.5046-0.99424 0.0467 2e-3 1.4224 1.3045 2.1108 1.9103-0.0834 0.0232-0.0507 0.18982-0.12986 0.22484-0.15299 0.99174-4.7673 2.2256-7.1134 2.7339l-2.5883 1.4364c-1.2239 0.54738-3.0389 1.324-4.2071 1.8003-2.0389 0.8312-2.2131 0.89918-2.1615 0.8435z" fill="#fff" opacity=".989" stroke-width=".0042932"/>
  </g>
 </g>
</svg>
