<svg width="43" height="32" viewBox="0 0 33.819 12.529" xmlns="http://www.w3.org/2000/svg"><path d="M36.089-79.322l4.944-3.376 6.473-4.016 4.016-2.504 7.181 6.142 1.89-.708 8.382 6.73-5.402-.768s-7.824-3.278-8.06-3.278c-.119 0-1.845.614-3.725 1.395-.94.39-1.17.88-1.902.906s-1.712-.647-1.712-.647l1.864-3.308-6.69 2.484-2.127.608z" fill="none" stroke="#000" stroke-width=".265"/><path d="M50.857-86.477c.85-.85 2.268-.378 2.268-.378l1.606.378-3.213-2.74-3.023 2.079-6.426 3.685-5.983 4.132 5.51-2.242 4.442-1.985.661-1.228z" fill="none" stroke="#000" stroke-width=".265"/><path d="M37.068-79.965c.18-.185 4.366-2.894 5.777-3.768.78-.483 2.236-1.61 3.485-2.13 1.181-.871 2.876-1.686 3.681-2.237 1.313-.898 1.34-1.224 1.51-1.117.27.168 3.215 2.77 2.865 2.588 0 0-.946-.145-1.258-.226-.875-.226-1.714.087-2.268.378 0 0-1.002.387-2.168.807l-1.99.894-.486.75-.175.479-2.268 1.08c-1.132.54-2.86 1.032-3.855 1.489-2.211 1.014-2.966 1.132-2.85 1.013z" opacity=".989"/><path d="M58.707-83.075L56.1-80.92l1.386.568 1.804-1.153.385-.584 1.236.033c4.592 3 1.023-.495-.314-1.728z" fill="none" stroke="#000" stroke-width=".265"/><path d="M49.497-78.826a10.3 10.3 0 01-.84-.365l-.226-.214-.253-.041c.039-.074.704-1.048 1.2-1.925.494-.877.656-1.651.656-1.677 0-.025.417.118.384.13 0 0-1.718.625-3.622 1.332-2.46.913-3.75 1.302-4.494 1.515l-1.077.409-1.911.051c-1.021.068-2.387.13-2.465.121-.105-.01.844-.376 2.317-.972 1.086-.439 3.096-1.257 4.475-1.868l2.404-1.218.334-.58.422-.552 2.085-.888c1.22-.52 2.11-.869 2.197-.943.26-.221.71-.398 1.19-.396.55.003 2.416.466 2.62.64 1.497 1.26 3.914 3.186 3.612 3.194.302-.008-.542.564-1.213 1.061L56.1-80.92c.048.17-.63-.174-.708-.174-.166 0-.564.105-1.929.628-1.544.592-1.954.835-2.518 1.19-.242.193-.751.339-.839.364-.235.067-.433.275-.608.086z" opacity=".989"/><path d="M-5.205-80.623l4.944-3.376 6.473-4.016 4.016-2.504 7.181 6.142 1.89-.708 8.381 6.73-5.401-.768s-7.824-3.278-8.06-3.278c-.119 0-1.845.614-3.725 1.395-.94.39-1.171.88-1.902.906-.731.026-1.712-.647-1.712-.647l1.864-3.308-6.69 2.484-2.127.608z" fill="none" stroke="#000" stroke-width=".265"/><path d="M9.566-87.779c.85-.85 2.268-.378 2.268-.378l1.606.378-3.213-2.74-3.023 2.079-6.426 3.685-5.983 4.132 5.51-2.242 4.442-1.985.661-1.228z" fill="none" stroke="#000" stroke-width=".265"/><path d="M-4.226-81.267c.18-.185 4.366-2.894 5.777-3.768.78-.483 2.236-1.61 3.485-2.13 1.181-.871 2.876-1.686 3.681-2.237 1.313-.898 1.34-1.224 1.51-1.117.27.168 3.215 2.77 2.865 2.588 0 0-.946-.145-1.258-.226-.875-.226-1.714.087-2.268.378 0 0-1.002.387-2.168.807l-1.99.894-.486.75-.175.479-2.268 1.08c-1.132.54-2.86 1.032-3.855 1.489-2.211 1.014-2.966 1.132-2.85 1.013z" opacity=".989"/><path d="M17.409-84.377l-2.607 2.155 1.303.334 1.603-1.604.668.1 1.237.034 1.202-.334-1.516-1.394z" fill="none" stroke="#000" stroke-width=".265"/><path d="M15.091-81.941a4.698 4.698 0 01-.498-.147c-.013-.012.615-.532 1.396-1.156l1.42-1.134 1.068-.387c.588-.213 1.08-.388 1.094-.388.047 0 1.469 1.278 1.466 1.318-.001.022-.242.104-.535.184-.529.143-.258.309-.89.293-.35-.01-.938.003-1.236-.034l-.668-.1-.872.835c-.731.769-1.176.847-1.21.844a8.1 8.1 0 01-.535-.128z" opacity=".989"/><path d="M8.046-80.352a5.225 5.225 0 01-.603-.258l-.343-.174.07-.135c.038-.075.474-.853.969-1.73.494-.877.9-1.616.9-1.641 0-.025-.027-.036-.06-.023l-3.522 1.308c-2.46.913-3.767 1.372-4.512 1.586l-1.05.3-1.855.124c-1.021.068-1.92.117-1.998.11-.106-.012.36-.218 1.833-.813a179.76 179.76 0 004.48-1.91l2.506-1.112.666-1.232 2.079-.852c1.228-.504 2.14-.904 2.227-.979.26-.221.64-.333 1.119-.331.55.003 2.315.413 2.52.586 1.497 1.261 3.646 3.13 3.636 3.16-.007.022-.54.475-1.184 1.007l-1.17.968-.2-.072a1.27 1.27 0 00-.342-.073c-.166 0-.753.2-2.118.724-1.544.591-1.954.775-2.518 1.13-.29.181-.598.35-.685.376-.236.067-.552.051-.845-.044z" fill="#fff" opacity=".989"/><path d="M65.917-77.543l-2.343-.279-1.604-.732c-.882-.368-2.286-.99-3.063-1.31-.709-.243-2.766-1.058-2.561-1.124 0 0 .97-.151 1.388-.57l1.27-.632c.46-.161.858-.101 1.28-.089l.624.222 1.301.362.197-.513-.331-.348 3.267 2.696c1.657 1.367 3.28 2.625 3.036 2.524-.053-.022.3.104.243.101a45.05 45.05 0 01-2.432-.284z" opacity=".989"/><path d="M37.419-80.049c.015-.016.853-.593 1.862-1.283 2.285-1.56 4.487-2.933 7.248-4.517 1.925-1.103 2.091-1.207 3.475-2.155.799-.548 1.476-.995 1.504-.994.047.001 1.423 1.304 2.111 1.91-.083.023-.05.19-.13.225-.153.992-4.767 2.225-7.113 2.734l-2.588 1.436a160.686 160.686 0 01-4.207 1.8c-2.04.832-2.214.9-2.162.844z" fill="#fff" opacity=".989"/><path opacity=".989" d="M-40.246-142.379h115.99v35.173h-115.99zm1.309 75.771h115.99v35.173h-115.99z"/><path d="M.475 10.06l4.944-3.376 6.473-4.016L15.908.164l7.181 6.142 1.89-.708 8.382 6.73-5.402-.768s-7.824-3.278-8.06-3.278c-.119 0-1.845.614-3.725 1.395-.94.39-1.17.88-1.902.906-.731.026-1.712-.647-1.712-.647l1.864-3.308-6.69 2.484-2.127.608z" fill="none" stroke="#000" stroke-width=".265"/><path d="M15.246 2.91c.85-.85 2.268-.378 2.268-.378l1.606.378L15.908.17l-3.024 2.079-6.426 3.685-5.983 4.132 5.51-2.242 4.442-1.985.661-1.228z" fill="none" stroke="#000" stroke-width=".265"/><path d="M1.454 9.42c.18-.185 4.366-2.894 5.777-3.768.78-.483 2.236-1.61 3.485-2.13 1.181-.871 2.876-1.686 3.681-2.237C15.71.387 15.737.06 15.907.168c.27.168 3.215 2.77 2.865 2.588 0 0-.946-.145-1.258-.226-.875-.226-1.714.087-2.268.378 0 0-1.002.387-2.168.807l-1.99.894-.486.75-.175.479-2.268 1.08c-1.132.54-2.86 1.032-3.855 1.489C2.093 9.42 1.338 9.539 1.454 9.42z" opacity=".989"/><path d="M23.089 6.31l-2.607 2.155 1.386.568 1.804-1.153.385-.584 1.236.033c4.592 3 1.023-.495-.314-1.728z" fill="none" stroke="#000" stroke-width=".265"/><path d="M13.879 10.56c-.143-.046-.65-.269-.84-.365l-.226-.214-.253-.041c.039-.074.704-1.048 1.2-1.925.494-.877.656-1.651.656-1.677 0-.025.417.118.384.13 0 0-1.718.625-3.622 1.332-2.46.913-3.75 1.302-4.494 1.515l-1.077.409-1.911.051c-1.021.068-2.387.13-2.465.121-.105-.01.844-.376 2.317-.972 1.086-.439 3.096-1.257 4.475-1.868l2.404-1.218.334-.58.422-.552 2.085-.888c1.22-.52 2.11-.868 2.197-.943.26-.221.71-.398 1.19-.396.55.003 2.416.466 2.62.64 1.497 1.26 3.914 3.186 3.612 3.194.302-.009-.542.564-1.213 1.061l-1.193 1.092c.048.17-.63-.174-.708-.174-.166 0-.564.105-1.929.628-1.544.592-1.954.835-2.518 1.19-.242.193-.751.339-.839.364-.235.067-.433.275-.608.086z" opacity=".989"/><path d="M30.302 11.84l-2.343-.279-1.604-.732c-.882-.368-2.286-.99-3.062-1.31-.71-.243-2.767-1.058-2.562-1.124 0 0 .97-.151 1.388-.57l1.27-.632c.46-.161.858-.101 1.28-.089l.624.222 1.301.362.197-.513-.331-.348 3.267 2.696c1.657 1.367 3.28 2.625 3.036 2.524-.053-.022.3.104.243.101a45.199 45.199 0 01-2.432-.284z" opacity=".989"/><path d="M1.804 9.33c.015-.016.853-.593 1.862-1.283 2.285-1.56 4.487-2.933 7.248-4.517 1.925-1.103 2.091-1.207 3.475-2.155.799-.548 1.476-.995 1.504-.994.047.002 1.423 1.304 2.111 1.91-.083.023-.05.19-.13.225-.153.992-4.767 2.225-7.113 2.734L8.173 6.686a160.686 160.686 0 01-4.207 1.8c-2.04.832-2.214.9-2.162.844z" fill="#fff" opacity=".989"/><g transform="translate(-56.523 -159.12)"><rect x="52.478" y="147.24" width="41.814" height="36.763" ry="0" fill="none" opacity=".989"/><rect x="115.35" y="168.82" width="41.814" height="36.763" ry="0" fill="none" opacity=".989"/><ellipse cx="136" cy="185.68" rx="19.89" ry="20.731" fill="#fff" opacity=".989"/></g><path d="M63.347 31.64l4.944-3.376 6.473-4.016 4.016-2.504 7.181 6.142 1.89-.708 8.382 6.73-5.402-.768s-7.824-3.278-8.06-3.278c-.119 0-1.844.614-3.725 1.395-.94.39-1.17.88-1.902.906-.731.026-1.711-.647-1.711-.647l1.864-3.308-6.692 2.484-2.125.608z" fill="none" stroke="#000" stroke-width=".265"/><path d="M78.117 24.49c.85-.85 2.268-.378 2.268-.378l1.606.378-3.213-2.74-3.023 2.079-6.426 3.685-5.983 4.132 5.51-2.242 4.442-1.985.661-1.228z" fill="none" stroke="#000" stroke-width=".265"/><path d="M64.327 31c.18-.185 4.366-2.894 5.777-3.768.78-.483 2.237-1.61 3.485-2.13 1.181-.871 2.876-1.686 3.681-2.237 1.313-.898 1.34-1.224 1.51-1.117.27.168 3.215 2.77 2.865 2.588 0 0-.946-.145-1.258-.226-.875-.226-1.714.087-2.268.378 0 0-1.002.387-2.168.807l-1.99.894-.486.75-.175.479-2.268 1.08c-1.132.54-2.86 1.032-3.855 1.489C64.966 31 64.211 31.119 64.327 31z" opacity=".989"/><path d="M85.967 27.89l-2.607 2.155 1.386.568 1.804-1.153.385-.584 1.236.033c4.592 3 1.023-.495-.314-1.728z" fill="none" stroke="#000" stroke-width=".265"/><path d="M76.757 32.14c-.143-.046-.65-.269-.84-.365l-.226-.214-.253-.041c.039-.074.704-1.048 1.2-1.925.494-.877.656-1.651.656-1.677 0-.025.417.118.384.13 0 0-1.718.625-3.622 1.332-2.46.913-3.75 1.302-4.494 1.515l-1.077.409-1.911.051c-1.021.068-2.387.13-2.465.121-.105-.01.844-.376 2.317-.972 1.086-.439 3.096-1.257 4.475-1.868l2.404-1.218.334-.58.422-.552 2.085-.888c1.22-.52 2.11-.869 2.197-.943.26-.221.71-.398 1.19-.396.55.003 2.416.466 2.62.64 1.497 1.26 3.914 3.186 3.612 3.194.302-.009-.542.564-1.213 1.061l-1.193 1.092c.048.17-.63-.174-.708-.174-.166 0-.564.105-1.929.628-1.544.592-1.954.835-2.518 1.19-.242.193-.751.339-.839.364-.235.067-.433.275-.608.086z" opacity=".989"/><path d="M93.177 33.42l-2.343-.279-1.604-.732c-.882-.368-2.286-.99-3.063-1.31-.709-.243-2.766-1.058-2.561-1.124 0 0 .97-.151 1.388-.57l1.27-.632c.46-.161.858-.101 1.28-.089l.624.222 1.301.362.197-.513-.331-.348 3.267 2.696c1.657 1.367 3.28 2.625 3.036 2.524-.053-.022.3.104.243.101a45.199 45.199 0 01-2.432-.284z" opacity=".989"/><path d="M64.677 30.92c.015-.016.853-.593 1.862-1.283 2.285-1.56 4.487-2.933 7.248-4.517 1.925-1.103 2.091-1.207 3.475-2.155.799-.548 1.476-.995 1.504-.994.047.002 1.423 1.304 2.111 1.91-.083.023-.05.19-.13.225-.153.992-4.767 2.225-7.113 2.734l-2.588 1.436a160.686 160.686 0 01-4.207 1.8c-2.04.832-2.214.9-2.162.844z" fill="#fff" opacity=".989"/></svg>